<svg width="158" height="163" viewBox="0 0 158 163" fill="none" xmlns="http://www.w3.org/2000/svg">
<rect width="158" height="163" fill="#F5F5F5"/>
<g clip-path="url(#clip0_5604_5191)">
<rect width="1920" height="1080" transform="translate(-881.384 -351.383)" fill="white"/>
<path d="M78.6162 157.594C110.528 157.594 136.398 156.181 136.398 154.438C136.398 152.695 110.528 151.282 78.6162 151.282C46.7042 151.282 20.8345 152.695 20.8345 154.438C20.8345 156.181 46.7042 157.594 78.6162 157.594Z" fill="#78909C" stroke="#78909C" stroke-width="2.5" stroke-linecap="round" stroke-linejoin="round"/>
<path d="M126.203 74.644H74.0159L69.8378 64.4599C68.6433 61.5542 65.632 59.6318 62.2707 59.6318H32.7687C29.4073 59.6318 26.396 61.5542 25.2015 64.4599L22.3569 73.6883C21.829 75.4051 21.5513 77.1886 21.5401 78.9887L21.0234 146.477C21.0234 150.832 24.4959 154.36 28.7851 154.36H133.964V82.5278C133.964 78.172 130.492 74.644 126.203 74.644Z" fill="#CFD8DC"/>
<path d="M126.203 74.644H74.0159L69.8378 64.4599C68.6433 61.5542 65.632 59.6318 62.2707 59.6318H32.7687C31.6964 59.6318 30.6685 59.8263 29.7129 60.1874H58.4315C61.7928 60.1874 66.3932 62.1098 67.5877 65.0155L72.2547 76.6663H122.364C129.17 76.6663 131.714 79.5443 131.714 86.9948V154.355H133.964V82.5223C133.964 78.1664 130.492 74.6384 126.203 74.6384V74.644Z" fill="white"/>
<path d="M125.225 74.644H74.0159L69.8378 64.4599C68.6433 61.5542 65.632 59.6318 62.2707 59.6318H32.7687C29.4073 59.6318 26.396 61.5542 25.2015 64.4599L22.3569 73.6883C21.829 75.4051 21.5513 77.1886 21.5401 78.9887L21.0234 146.477C21.0234 150.832 24.4959 154.36 28.7851 154.36H133.964V83.5112C133.964 78.3276 130.392 74.6495 125.225 74.6495V74.644Z" stroke="#78909C" stroke-width="2.5" stroke-linecap="round" stroke-linejoin="round"/>
<path d="M29.4574 154.36H133.965L116.052 95.662C115.085 92.5007 112.207 90.345 108.952 90.345H13.1841C8.17823 90.345 4.60021 95.2731 6.08364 100.129L20.6124 147.738C21.8125 151.677 25.4016 154.36 29.4574 154.36Z" fill="#CFD8DC"/>
<path d="M11.0452 92.9451H106.818C110.074 92.9451 112.952 95.1008 113.919 98.2622L131.037 154.36H133.965L116.052 95.662C115.086 92.5007 112.208 90.345 108.952 90.345H13.1842C10.2229 90.345 7.76716 92.0784 6.56152 94.4897C7.79494 93.5341 9.33393 92.9451 11.0507 92.9451H11.0452Z" fill="white"/>
<path d="M29.4574 154.36H133.965L116.052 95.662C115.085 92.5007 112.208 90.345 108.952 90.345H13.1841C8.17823 90.345 4.60021 95.2731 6.08364 100.129L20.6124 147.738C21.8125 151.677 25.4016 154.36 29.4574 154.36Z" stroke="#78909C" stroke-width="2.5" stroke-linecap="round" stroke-linejoin="round"/>
<path d="M126.52 46.5977C126.52 46.5977 126.186 46.4921 125.57 46.3755C124.959 46.2588 124.036 46.1643 122.931 46.3477C121.831 46.5255 120.542 47.0033 119.425 47.9756C118.308 48.9312 117.375 50.3535 117.03 52.0203C117.03 52.037 117.025 52.0481 117.019 52.0647L116.952 52.3536L116.836 52.087C116.152 50.5313 114.986 49.309 113.736 48.5478C112.48 47.77 111.147 47.4755 110.041 47.4255C108.924 47.3811 108.03 47.5644 107.43 47.7367C106.83 47.9145 106.513 48.0645 106.507 48.0422C106.507 48.0367 106.58 47.9978 106.73 47.9256C106.88 47.8533 107.107 47.7589 107.407 47.6644C108.002 47.4644 108.907 47.2589 110.046 47.2866C111.174 47.3144 112.541 47.6033 113.83 48.3923C115.113 49.1645 116.314 50.4091 117.014 52.0036L116.83 52.0258C116.83 52.0258 116.836 51.9981 116.841 51.9814C117.197 50.2646 118.164 48.809 119.308 47.8367C120.458 46.8477 121.792 46.3699 122.908 46.2088C124.036 46.0421 124.964 46.1588 125.581 46.2977C125.892 46.3644 126.125 46.4421 126.281 46.4977C126.436 46.5533 126.52 46.5866 126.514 46.5921L126.52 46.5977Z" fill="#78909C"/>
<path d="M152.494 32.8746C152.494 32.8746 152.305 32.8301 151.966 32.769C151.627 32.7079 151.127 32.6635 150.522 32.769C149.922 32.869 149.221 33.1357 148.616 33.6635C148.01 34.1858 147.499 34.9636 147.316 35.8692V35.8915L147.244 36.1748L147.127 35.9081C146.755 35.0581 146.121 34.3969 145.443 33.9802C144.76 33.558 144.032 33.3913 143.432 33.358C142.821 33.3302 142.332 33.4246 142.004 33.5135C141.677 33.6024 141.499 33.6802 141.493 33.6691C141.493 33.6635 141.532 33.6413 141.615 33.5969C141.699 33.5524 141.821 33.5024 141.988 33.4469C142.315 33.3357 142.815 33.2135 143.443 33.2246C144.066 33.2357 144.827 33.3969 145.543 33.8302C146.255 34.258 146.927 34.947 147.316 35.8359L147.132 35.8581V35.8304C147.332 34.8747 147.871 34.0691 148.51 33.5302C149.149 32.9802 149.894 32.719 150.51 32.6357C151.138 32.5468 151.649 32.6135 151.988 32.6968C152.161 32.7357 152.288 32.7801 152.372 32.8135C152.455 32.8468 152.499 32.869 152.499 32.8746H152.494Z" fill="#78909C"/>
<path d="M135.115 27.4353C135.115 27.4353 134.942 27.6464 134.626 28.0242C134.309 28.402 133.881 28.9687 133.437 29.7243C132.542 31.2189 131.675 33.5857 131.781 36.2692C131.781 36.297 131.781 36.3248 131.781 36.3526L131.592 36.3748C131.359 35.0692 130.887 33.8802 130.309 32.8912C129.731 31.8967 129.064 31.0967 128.431 30.4966C127.803 29.8966 127.236 29.4743 126.825 29.2132C126.42 28.9465 126.181 28.8132 126.192 28.8021C126.192 28.7965 126.258 28.8243 126.37 28.8798C126.481 28.941 126.658 29.0187 126.864 29.1521C127.286 29.3965 127.875 29.8077 128.52 30.4022C129.17 30.9967 129.859 31.8023 130.453 32.8023C131.053 33.8024 131.537 35.0136 131.775 36.3415L131.587 36.3637C131.587 36.3637 131.587 36.3081 131.587 36.2803C131.481 33.5468 132.387 31.1522 133.32 29.6577C133.781 28.9021 134.237 28.3409 134.57 27.9742C134.731 27.7853 134.876 27.6575 134.965 27.5686C135.059 27.4797 135.109 27.4353 135.115 27.4353Z" fill="#78909C"/>
<path d="M32.5576 16.9399C32.7798 15.3453 30.5241 14.0286 28.8296 13.8952C28.0239 13.8286 27.185 13.9563 26.4183 13.6897C24.7626 13.1118 24.1015 10.9728 22.4847 10.2894C21.2735 9.77828 19.8845 10.2339 18.7122 10.8228C17.5399 11.4117 16.3843 12.1562 15.0731 12.2396C13.9341 12.3118 12.6951 11.8895 11.7006 12.4451C10.9561 12.8618 10.5672 13.7174 9.88383 14.2175C9.21157 14.7119 8.33928 14.8175 7.51145 14.862C6.67806 14.9064 5.82245 14.9175 5.06129 15.262C4.30568 15.6065 3.67786 16.4065 3.83343 17.2232L32.552 16.9399H32.5576Z" fill="#EEEEEE"/>
<path d="M49.509 6.15035C49.6367 5.23918 48.3478 4.48913 47.381 4.41134C46.9199 4.37245 46.4421 4.44468 46.0032 4.29467C45.0587 3.96687 44.6808 2.73901 43.753 2.35009C43.0641 2.06119 42.2696 2.31676 41.5973 2.65567C40.925 2.99458 40.2639 3.41683 39.5194 3.46684C38.8693 3.50573 38.1637 3.26682 37.5915 3.58351C37.1692 3.82241 36.947 4.31134 36.5525 4.60024C36.1692 4.8836 35.6691 4.94471 35.1969 4.96694C34.7246 4.99472 34.2301 5.00027 33.7968 5.19473C33.3634 5.39474 33.0078 5.85033 33.0967 6.31703L49.5034 6.15591L49.509 6.15035Z" fill="#EEEEEE"/>
<path d="M147.943 131.67C146.838 132.026 145.954 132.931 145.454 133.981C144.954 135.031 144.798 136.22 144.815 137.381C144.848 139.632 145.887 142.004 147.076 143.921C149.115 142.471 149.827 139.659 150.099 138.209C150.532 135.92 149.915 131.52 147.938 131.67" fill="#CFD8DC"/>
<path d="M144.537 147.382C144.96 146.154 144.576 144.721 143.693 143.765C142.809 142.81 141.498 142.31 140.198 142.282C139.598 142.271 138.937 142.376 138.548 142.837C138.181 143.265 138.154 143.91 138.365 144.432C138.576 144.954 138.987 145.371 139.431 145.71C140.954 146.888 142.648 147.754 144.537 147.382Z" fill="#CFD8DC"/>
<path d="M146.265 154.444C146.265 154.444 146.265 154.277 146.243 153.983C146.215 153.655 146.182 153.233 146.138 152.721C146.032 151.666 145.915 150.16 145.254 148.643C144.604 147.132 143.598 145.965 142.721 145.349C142.282 145.032 141.893 144.832 141.615 144.721C141.476 144.66 141.365 144.632 141.293 144.604C141.215 144.582 141.176 144.571 141.176 144.576C141.159 144.61 141.809 144.799 142.654 145.443C143.504 146.071 144.471 147.221 145.11 148.71C145.76 150.193 145.893 151.682 146.032 152.732C146.093 153.26 146.143 153.688 146.188 153.988C146.232 154.283 146.26 154.444 146.271 154.444H146.265Z" fill="#78909C"/>
<path d="M148.116 135.065C148.116 135.065 148.093 135.131 148.071 135.265C148.049 135.415 148.016 135.604 147.982 135.837C147.904 136.331 147.804 137.054 147.688 137.943C147.454 139.721 147.165 142.182 146.904 144.904C146.649 147.632 146.471 150.105 146.365 151.894C146.315 152.788 146.276 153.516 146.26 154.016C146.254 154.255 146.249 154.444 146.243 154.594C146.243 154.727 146.243 154.794 146.243 154.794C146.249 154.794 146.26 154.727 146.271 154.594C146.282 154.444 146.299 154.255 146.321 154.016C146.36 153.494 146.415 152.777 146.477 151.899C146.61 150.11 146.804 147.643 147.06 144.921C147.315 142.199 147.588 139.737 147.793 137.954C147.893 137.076 147.977 136.365 148.038 135.843C148.06 135.609 148.082 135.415 148.099 135.27C148.11 135.137 148.116 135.07 148.11 135.07L148.116 135.065Z" fill="#78909C"/>
<path d="M147.649 149.06C148.343 146.41 150.399 144.154 152.977 143.221C153.633 142.982 154.472 142.865 154.938 143.387C155.411 143.904 155.211 144.732 154.894 145.354C153.577 147.949 150.566 149.571 147.677 149.254" fill="#CFD8DC"/>
<path d="M152.46 145.299C152.46 145.299 152.31 145.337 152.043 145.432C151.91 145.482 151.749 145.537 151.571 145.626C151.393 145.715 151.177 145.799 150.966 145.926C150.749 146.049 150.504 146.182 150.26 146.354C150.01 146.515 149.76 146.71 149.499 146.921C148.988 147.349 148.471 147.871 148.004 148.493C147.549 149.116 147.199 149.766 146.938 150.377C146.815 150.688 146.699 150.982 146.626 151.271C146.532 151.555 146.482 151.827 146.432 152.071C146.371 152.316 146.36 152.544 146.332 152.744C146.304 152.944 146.299 153.116 146.299 153.255C146.293 153.538 146.293 153.688 146.299 153.688C146.337 153.688 146.332 153.066 146.538 152.093C146.593 151.849 146.649 151.582 146.749 151.31C146.826 151.027 146.949 150.738 147.071 150.438C147.338 149.838 147.682 149.204 148.132 148.593C148.588 147.988 149.093 147.471 149.588 147.043C149.843 146.832 150.082 146.638 150.327 146.476C150.56 146.299 150.799 146.165 151.01 146.038C151.871 145.537 152.46 145.337 152.449 145.304L152.46 145.299Z" fill="#78909C"/>
<path d="M140.476 154.727C140.448 154.749 139.726 153.849 138.87 152.71C138.015 151.571 137.342 150.632 137.376 150.61C137.403 150.588 138.126 151.488 138.981 152.627C139.837 153.76 140.509 154.705 140.476 154.727Z" fill="#78909C"/>
<path d="M140.987 154.788C140.954 154.799 140.559 153.816 140.104 152.582C139.654 151.349 139.315 150.343 139.354 150.327C139.387 150.316 139.781 151.299 140.237 152.532C140.687 153.766 141.026 154.771 140.987 154.788Z" fill="#78909C"/>
<path d="M142.159 150.782C142.198 150.799 141.859 151.643 141.648 152.744C141.426 153.844 141.42 154.755 141.381 154.755C141.365 154.755 141.342 154.527 141.354 154.155C141.365 153.782 141.409 153.271 141.515 152.716C141.626 152.16 141.776 151.671 141.909 151.321C142.043 150.977 142.148 150.771 142.165 150.777L142.159 150.782Z" fill="#78909C"/>
<path d="M13.751 154.788C13.7232 154.811 13.3787 154.422 12.8342 153.777C12.2342 153.06 11.5175 152.205 10.7285 151.255C9.93403 150.305 9.21732 149.449 8.61728 148.732C8.07835 148.082 7.75611 147.677 7.78389 147.649C7.81167 147.627 8.18392 147.988 8.75618 148.605C9.32844 149.221 10.1063 150.094 10.9285 151.077C11.7508 152.06 12.4731 152.977 12.9787 153.649C13.4843 154.322 13.7787 154.755 13.751 154.777V154.788Z" fill="#78909C"/>
<path d="M14.229 154.494C14.1567 154.51 13.64 152.371 13.0733 149.721C12.5066 147.071 12.1066 144.91 12.1788 144.893C12.2511 144.876 12.7678 147.016 13.3345 149.666C13.9012 152.316 14.3012 154.477 14.229 154.494Z" fill="#78909C"/>
<path d="M16.9179 145.71C16.9568 145.727 16.7512 146.204 16.4679 146.982C16.1789 147.766 15.8289 148.855 15.5511 150.093C15.2789 151.332 15.14 152.471 15.0733 153.299C15.0066 154.127 14.99 154.644 14.9455 154.644C14.9122 154.644 14.8622 154.127 14.8844 153.288C14.9066 152.449 15.0178 151.288 15.29 150.032C15.5678 148.777 15.9567 147.677 16.2901 146.91C16.6234 146.138 16.8901 145.693 16.9179 145.704V145.71Z" fill="#78909C"/>
</g>
<defs>
<clipPath id="clip0_5604_5191">
<rect width="1920" height="1080" fill="white" transform="translate(-881.384 -351.383)"/>
</clipPath>
</defs>
</svg>
