<svg width="256" height="256" viewBox="0 0 256 256" fill="none" xmlns="http://www.w3.org/2000/svg">
<rect width="256" height="256" rx="24" fill="#22D3EE"/>
<path d="M167.44 188.138C167.44 191.762 164.514 194.717 160.862 194.717H121.449C117.826 194.717 114.871 191.79 114.871 188.138V148.722C114.871 145.098 117.798 142.144 121.449 142.144H167.438V43.5767C167.438 39.9528 170.364 36.9976 174.016 36.9976H213.429C217.052 36.9976 220.007 39.925 220.007 43.5767V135.566C220.007 139.19 217.08 142.144 213.429 142.144H167.44V188.138Z" fill="#062C35"/>
<path d="M88.5703 214.426C88.5703 218.049 85.6434 221.005 81.9922 221.005H42.5781C38.9546 221.005 36 218.077 36 214.426V122.437C36.0002 118.813 38.9269 115.859 42.5781 115.858H88.5703V214.426ZM134.57 63.2842C138.194 63.2842 141.148 66.2108 141.148 69.8623V109.278C141.148 112.902 138.222 115.857 134.57 115.857H88.5791V69.8623C88.5794 66.2387 91.5059 63.2842 95.1572 63.2842H134.57Z" fill="#062C35"/>
</svg>
