<svg width="824" height="819" viewBox="0 0 824 819" fill="none" xmlns="http://www.w3.org/2000/svg">
<g clip-path="url(#clip0_2058_666)">
<rect width="824" height="819" fill="#042027"/>
<g filter="url(#filter0_f_2058_666)">
<path d="M105.202 42.5638C48.473 -17.2029 -38.308 43.4227 -74.6074 81.2063V712.361H634.503C636.191 644.523 631.464 506.785 599.047 498.541C558.527 488.237 492.681 519.15 447.095 480.508C401.509 441.866 485.083 354.277 447.095 310.483C409.107 266.688 325.533 313.059 302.74 284.721C279.948 256.384 317.936 161.067 282.48 106.968C247.025 52.8686 176.114 117.272 105.202 42.5638Z" fill="#00DDFF"/>
</g>
<g filter="url(#filter1_f_2058_666)">
<path d="M73.9229 146.207C25.1434 95.6851 -49.4768 146.933 -80.6895 178.872V712.395H529.051C530.503 655.05 526.438 538.619 498.564 531.65C463.722 522.94 407.103 549.071 367.905 516.407C328.708 483.742 400.57 409.702 367.905 372.682C335.241 335.662 263.378 374.86 243.78 350.906C224.181 326.951 256.845 246.379 226.358 200.648C195.871 154.917 134.897 209.359 73.9229 146.207Z" fill="#047C8C"/>
</g>
<g filter="url(#filter2_f_2058_666)">
<path d="M-40.5889 252.812C-89.3684 202.291 -163.989 253.538 -195.201 285.477V819H414.539C415.991 761.656 411.926 645.224 384.052 638.256C349.21 629.545 292.591 655.677 253.394 623.012C214.196 590.348 286.058 516.308 253.394 479.288C220.729 442.268 148.867 481.465 129.268 457.511C109.669 433.557 142.334 352.984 111.847 307.253C81.3596 261.523 20.3855 315.964 -40.5889 252.812Z" fill="#081417"/>
</g>
</g>
<defs>
<filter id="filter0_f_2058_666" x="-528.607" y="-436.589" width="1617.41" height="1602.95" filterUnits="userSpaceOnUse" color-interpolation-filters="sRGB">
<feFlood flood-opacity="0" result="BackgroundImageFix"/>
<feBlend mode="normal" in="SourceGraphic" in2="BackgroundImageFix" result="shape"/>
<feGaussianBlur stdDeviation="227" result="effect1_foregroundBlur_2058_666"/>
</filter>
<filter id="filter1_f_2058_666" x="-534.689" y="-329.056" width="1518" height="1495.45" filterUnits="userSpaceOnUse" color-interpolation-filters="sRGB">
<feFlood flood-opacity="0" result="BackgroundImageFix"/>
<feBlend mode="normal" in="SourceGraphic" in2="BackgroundImageFix" result="shape"/>
<feGaussianBlur stdDeviation="227" result="effect1_foregroundBlur_2058_666"/>
</filter>
<filter id="filter2_f_2058_666" x="-649.201" y="-222.45" width="1518" height="1495.45" filterUnits="userSpaceOnUse" color-interpolation-filters="sRGB">
<feFlood flood-opacity="0" result="BackgroundImageFix"/>
<feBlend mode="normal" in="SourceGraphic" in2="BackgroundImageFix" result="shape"/>
<feGaussianBlur stdDeviation="227" result="effect1_foregroundBlur_2058_666"/>
</filter>
<clipPath id="clip0_2058_666">
<rect width="824" height="819" fill="white"/>
</clipPath>
</defs>
</svg>
