<svg width="469" height="819" viewBox="0 0 469 819" fill="none" xmlns="http://www.w3.org/2000/svg">
<g clip-path="url(#clip0_1652_1944)">
<rect width="468.667" height="819" fill="url(#paint0_linear_1652_1944)"/>
<path d="M49.3381 734.973V749.519H47.321L39.9276 738.851H39.7926V749.519H37.598V734.973H39.6293L47.0298 745.655H47.1648V734.973H49.3381ZM54.7437 749.76C54.0524 749.76 53.4274 749.632 52.8687 749.377C52.31 749.116 51.8673 748.74 51.5406 748.247C51.2186 747.755 51.0576 747.151 51.0576 746.436C51.0576 745.821 51.176 745.314 51.4127 744.916C51.6495 744.519 51.9691 744.204 52.3715 743.972C52.774 743.74 53.2238 743.564 53.721 743.446C54.2181 743.328 54.7247 743.238 55.2408 743.176C55.8942 743.1 56.4246 743.039 56.8317 742.992C57.2389 742.939 57.5349 742.857 57.7195 742.743C57.9042 742.629 57.9965 742.445 57.9965 742.189V742.139C57.9965 741.519 57.8213 741.038 57.471 740.698C57.1253 740.357 56.6092 740.186 55.9227 740.186C55.2077 740.186 54.6442 740.345 54.2323 740.662C53.8251 740.975 53.5434 741.323 53.3871 741.706L51.3914 741.252C51.6281 740.589 51.9738 740.054 52.4283 739.646C52.8876 739.234 53.4156 738.936 54.0121 738.752C54.6087 738.562 55.2361 738.467 55.8942 738.467C56.3299 738.467 56.7915 738.52 57.2792 738.624C57.7716 738.723 58.2309 738.908 58.657 739.178C59.0879 739.448 59.4406 739.833 59.7153 740.335C59.9899 740.832 60.1272 741.479 60.1272 742.274V749.519H58.0533V748.027H57.9681C57.8308 748.302 57.6248 748.572 57.3502 748.837C57.0756 749.102 56.7228 749.322 56.292 749.497C55.8611 749.672 55.345 749.76 54.7437 749.76ZM55.2053 748.055C55.7924 748.055 56.2943 747.939 56.711 747.707C57.1324 747.475 57.452 747.172 57.6698 746.798C57.8924 746.42 58.0036 746.015 58.0036 745.584V744.178C57.9279 744.253 57.7811 744.324 57.5633 744.391C57.3502 744.452 57.1064 744.507 56.8317 744.554C56.5571 744.597 56.2896 744.637 56.0292 744.675C55.7688 744.708 55.551 744.736 55.3758 744.76C54.9638 744.812 54.5874 744.9 54.2465 745.023C53.9103 745.146 53.6405 745.323 53.4369 745.555C53.238 745.783 53.1386 746.086 53.1386 746.465C53.1386 746.99 53.3327 747.388 53.721 747.658C54.1092 747.923 54.604 748.055 55.2053 748.055ZM62.1557 749.519V738.609H64.194V740.385H64.329C64.5562 739.784 64.9279 739.315 65.444 738.979C65.9601 738.638 66.578 738.467 67.2977 738.467C68.0269 738.467 68.6377 738.638 69.1301 738.979C69.6273 739.32 69.9942 739.788 70.231 740.385H70.3446C70.605 739.803 71.0193 739.339 71.5875 738.993C72.1557 738.643 72.8328 738.467 73.6187 738.467C74.6083 738.467 75.4156 738.778 76.0406 739.398C76.6704 740.018 76.9852 740.953 76.9852 742.203V749.519H74.8616V742.402C74.8616 741.663 74.6604 741.128 74.258 740.797C73.8555 740.466 73.3749 740.3 72.8162 740.3C72.1249 740.3 71.5875 740.513 71.204 740.939C70.8205 741.36 70.6287 741.903 70.6287 742.565V749.519H68.5122V742.267C68.5122 741.675 68.3276 741.199 67.9582 740.84C67.5889 740.48 67.1083 740.3 66.5165 740.3C66.114 740.3 65.7423 740.406 65.4014 740.619C65.0652 740.828 64.793 741.119 64.5847 741.493C64.3811 741.867 64.2793 742.3 64.2793 742.793V749.519H62.1557ZM83.7332 749.739C82.6584 749.739 81.7327 749.509 80.9562 749.05C80.1844 748.586 79.5878 747.935 79.1664 747.097C78.7497 746.254 78.5414 745.267 78.5414 744.135C78.5414 743.018 78.7497 742.033 79.1664 741.18C79.5878 740.328 80.1749 739.663 80.9278 739.185C81.6853 738.707 82.5708 738.467 83.584 738.467C84.1995 738.467 84.7961 738.569 85.3738 738.773C85.9514 738.976 86.4699 739.296 86.9292 739.732C87.3885 740.167 87.7507 740.733 88.0158 741.429C88.281 742.12 88.4136 742.961 88.4136 743.95V744.703H79.7417V743.112H86.3326C86.3326 742.554 86.219 742.059 85.9917 741.628C85.7644 741.192 85.4448 740.849 85.0329 740.598C84.6257 740.347 84.1475 740.222 83.5982 740.222C83.0016 740.222 82.4808 740.368 82.0357 740.662C81.5954 740.951 81.2545 741.33 81.013 741.798C80.7763 742.262 80.6579 742.767 80.6579 743.311V744.554C80.6579 745.283 80.7857 745.903 81.0414 746.415C81.3018 746.926 81.664 747.317 82.1281 747.587C82.5921 747.852 83.1342 747.984 83.7545 747.984C84.1569 747.984 84.5239 747.928 84.8553 747.814C85.1868 747.696 85.4732 747.52 85.7147 747.288C85.9562 747.056 86.1408 746.77 86.2687 746.429L88.2786 746.791C88.1176 747.383 87.8288 747.902 87.4121 748.347C87.0002 748.787 86.4817 749.13 85.8567 749.377C85.2365 749.618 84.5286 749.739 83.7332 749.739ZM91.3689 749.653C90.9806 749.653 90.6468 749.516 90.3675 749.242C90.0881 748.962 89.9484 748.626 89.9484 748.233C89.9484 747.845 90.0881 747.513 90.3675 747.239C90.6468 746.959 90.9806 746.82 91.3689 746.82C91.7571 746.82 92.091 746.959 92.3703 747.239C92.6497 747.513 92.7893 747.845 92.7893 748.233C92.7893 748.493 92.7231 748.733 92.5905 748.95C92.4626 749.163 92.2922 749.334 92.0791 749.462C91.8661 749.59 91.6293 749.653 91.3689 749.653ZM91.3689 741.713C90.9806 741.713 90.6468 741.573 90.3675 741.294C90.0881 741.015 89.9484 740.681 89.9484 740.293C89.9484 739.904 90.0881 739.573 90.3675 739.298C90.6468 739.019 90.9806 738.879 91.3689 738.879C91.7571 738.879 92.091 739.019 92.3703 739.298C92.6497 739.573 92.7893 739.904 92.7893 740.293C92.7893 740.553 92.7231 740.792 92.5905 741.01C92.4626 741.223 92.2922 741.394 92.0791 741.521C91.8661 741.649 91.6293 741.713 91.3689 741.713ZM37.598 781.519V766.973H39.7926V773.294H47.044V766.973H49.2457V781.519H47.044V775.176H39.7926V781.519H37.598ZM51.6418 781.519V766.973H60.7611V768.862H53.8364V773.294H60.2852V775.176H53.8364V779.629H60.8463V781.519H51.6418ZM64.4195 766.973L67.8996 772.662H68.0133L71.4934 766.973H74.036L69.5048 774.246L74.0644 781.519H71.5076L68.0133 775.908H67.8996L64.4053 781.519H61.8485L66.4863 774.246L61.8769 766.973H64.4195ZM76.6415 779.715C76.2533 779.715 75.9195 779.577 75.6401 779.303C75.3608 779.023 75.2211 778.687 75.2211 778.294C75.2211 777.906 75.3608 777.574 75.6401 777.3C75.9195 777.02 76.2533 776.881 76.6415 776.881C77.0298 776.881 77.3636 777.02 77.643 777.3C77.9223 777.574 78.062 777.906 78.062 778.294C78.062 778.555 77.9957 778.794 77.8631 779.011C77.7353 779.225 77.5648 779.395 77.3518 779.523C77.1387 779.651 76.902 779.715 76.6415 779.715ZM76.6415 772.428C76.2533 772.428 75.9195 772.29 75.6401 772.016C75.3608 771.736 75.2211 771.4 75.2211 771.007C75.2211 770.619 75.3608 770.287 75.6401 770.013C75.9195 769.734 76.2533 769.594 76.6415 769.594C77.0298 769.594 77.3636 769.734 77.643 770.013C77.9223 770.287 78.062 770.619 78.062 771.007C78.062 771.268 77.9957 771.507 77.8631 771.725C77.7353 771.938 77.5648 772.108 77.3518 772.236C77.1387 772.364 76.902 772.428 76.6415 772.428Z" fill="#062C35"/>
<path d="M152.196 749.519V734.973H154.39V747.629H160.981V749.519H152.196ZM162.514 749.519V738.609H164.638V749.519H162.514ZM163.587 736.926C163.217 736.926 162.9 736.803 162.635 736.557C162.375 736.306 162.244 736.008 162.244 735.662C162.244 735.312 162.375 735.013 162.635 734.767C162.9 734.516 163.217 734.391 163.587 734.391C163.956 734.391 164.271 734.516 164.531 734.767C164.796 735.013 164.929 735.312 164.929 735.662C164.929 736.008 164.796 736.306 164.531 736.557C164.271 736.803 163.956 736.926 163.587 736.926ZM171.269 753.837C170.402 753.837 169.656 753.723 169.031 753.496C168.411 753.269 167.904 752.968 167.512 752.594C167.119 752.22 166.825 751.81 166.631 751.365L168.456 750.612C168.584 750.821 168.754 751.041 168.967 751.273C169.185 751.51 169.479 751.711 169.848 751.877C170.222 752.042 170.703 752.125 171.29 752.125C172.095 752.125 172.76 751.929 173.286 751.536C173.811 751.147 174.074 750.527 174.074 749.675V747.53H173.939C173.811 747.762 173.627 748.02 173.385 748.304C173.148 748.588 172.822 748.834 172.405 749.043C171.988 749.251 171.446 749.355 170.779 749.355C169.917 749.355 169.14 749.154 168.449 748.752C167.762 748.344 167.218 747.745 166.815 746.955C166.418 746.159 166.219 745.181 166.219 744.021C166.219 742.861 166.415 741.867 166.808 741.038C167.206 740.21 167.751 739.575 168.442 739.135C169.133 738.69 169.917 738.467 170.793 738.467C171.47 738.467 172.017 738.581 172.433 738.808C172.85 739.031 173.174 739.291 173.406 739.59C173.643 739.888 173.825 740.151 173.953 740.378H174.11V738.609H176.19V749.76C176.19 750.698 175.973 751.467 175.537 752.068C175.101 752.67 174.512 753.115 173.769 753.403C173.03 753.692 172.197 753.837 171.269 753.837ZM171.247 747.594C171.858 747.594 172.374 747.452 172.796 747.168C173.222 746.879 173.544 746.467 173.762 745.932C173.984 745.392 174.095 744.746 174.095 743.993C174.095 743.259 173.986 742.613 173.769 742.054C173.551 741.495 173.231 741.06 172.81 740.747C172.388 740.43 171.868 740.271 171.247 740.271C170.608 740.271 170.075 740.437 169.649 740.769C169.223 741.095 168.901 741.54 168.683 742.104C168.47 742.667 168.364 743.297 168.364 743.993C168.364 744.708 168.473 745.335 168.69 745.875C168.908 746.415 169.23 746.836 169.656 747.139C170.087 747.442 170.618 747.594 171.247 747.594ZM180.362 743.041V749.519H178.238V734.973H180.334V740.385H180.469C180.724 739.798 181.115 739.332 181.64 738.986C182.166 738.64 182.853 738.467 183.7 738.467C184.448 738.467 185.102 738.621 185.66 738.929C186.224 739.237 186.659 739.696 186.967 740.307C187.28 740.913 187.436 741.671 187.436 742.58V749.519H185.312V742.835C185.312 742.035 185.106 741.415 184.694 740.975C184.283 740.529 183.71 740.307 182.976 740.307C182.474 740.307 182.024 740.413 181.626 740.627C181.233 740.84 180.923 741.152 180.696 741.564C180.473 741.971 180.362 742.464 180.362 743.041ZM194.562 738.609V740.314H188.603V738.609H194.562ZM190.201 735.996H192.325V746.315C192.325 746.727 192.386 747.037 192.51 747.246C192.633 747.449 192.791 747.589 192.985 747.665C193.184 747.736 193.4 747.771 193.632 747.771C193.802 747.771 193.951 747.76 194.079 747.736C194.207 747.712 194.306 747.693 194.377 747.679L194.761 749.433C194.638 749.481 194.463 749.528 194.235 749.575C194.008 749.627 193.724 749.656 193.383 749.661C192.824 749.67 192.304 749.571 191.821 749.362C191.338 749.154 190.947 748.832 190.649 748.396C190.35 747.961 190.201 747.414 190.201 746.756V735.996ZM202.168 742.452V744.291H195.719V742.452H202.168ZM204.198 749.519V738.609H206.236V740.385H206.371C206.598 739.784 206.97 739.315 207.486 738.979C208.002 738.638 208.62 738.467 209.34 738.467C210.069 738.467 210.68 738.638 211.172 738.979C211.669 739.32 212.036 739.788 212.273 740.385H212.387C212.647 739.803 213.062 739.339 213.63 738.993C214.198 738.643 214.875 738.467 215.661 738.467C216.651 738.467 217.458 738.778 218.083 739.398C218.713 740.018 219.027 740.953 219.027 742.203V749.519H216.904V742.402C216.904 741.663 216.703 741.128 216.3 740.797C215.898 740.466 215.417 740.3 214.858 740.3C214.167 740.3 213.63 740.513 213.246 740.939C212.863 741.36 212.671 741.903 212.671 742.565V749.519H210.554V742.267C210.554 741.675 210.37 741.199 210 740.84C209.631 740.48 209.151 740.3 208.559 740.3C208.156 740.3 207.785 740.406 207.444 740.619C207.107 740.828 206.835 741.119 206.627 741.493C206.423 741.867 206.321 742.3 206.321 742.793V749.519H204.198ZM225.669 749.739C224.646 749.739 223.754 749.504 222.991 749.036C222.229 748.567 221.637 747.911 221.216 747.068C220.794 746.225 220.584 745.241 220.584 744.114C220.584 742.982 220.794 741.993 221.216 741.145C221.637 740.297 222.229 739.639 222.991 739.171C223.754 738.702 224.646 738.467 225.669 738.467C226.692 738.467 227.584 738.702 228.346 739.171C229.109 739.639 229.701 740.297 230.122 741.145C230.543 741.993 230.754 742.982 230.754 744.114C230.754 745.241 230.543 746.225 230.122 747.068C229.701 747.911 229.109 748.567 228.346 749.036C227.584 749.504 226.692 749.739 225.669 749.739ZM225.676 747.956C226.339 747.956 226.888 747.781 227.324 747.43C227.759 747.08 228.081 746.614 228.29 746.031C228.503 745.449 228.609 744.807 228.609 744.107C228.609 743.411 228.503 742.771 228.29 742.189C228.081 741.602 227.759 741.131 227.324 740.776C226.888 740.421 226.339 740.243 225.676 740.243C225.008 740.243 224.454 740.421 224.014 740.776C223.578 741.131 223.254 741.602 223.041 742.189C222.833 742.771 222.728 743.411 222.728 744.107C222.728 744.807 222.833 745.449 223.041 746.031C223.254 746.614 223.578 747.08 224.014 747.43C224.454 747.781 225.008 747.956 225.676 747.956ZM236.408 749.732C235.528 749.732 234.742 749.507 234.05 749.057C233.364 748.602 232.824 747.956 232.431 747.118C232.043 746.275 231.849 745.264 231.849 744.085C231.849 742.906 232.045 741.898 232.438 741.06C232.836 740.222 233.38 739.58 234.072 739.135C234.763 738.69 235.546 738.467 236.422 738.467C237.1 738.467 237.644 738.581 238.056 738.808C238.473 739.031 238.795 739.291 239.022 739.59C239.254 739.888 239.434 740.151 239.562 740.378H239.689V734.973H241.813V749.519H239.739V747.821H239.562C239.434 748.053 239.249 748.318 239.008 748.617C238.771 748.915 238.444 749.175 238.028 749.398C237.611 749.62 237.071 749.732 236.408 749.732ZM236.877 747.921C237.488 747.921 238.004 747.76 238.425 747.438C238.851 747.111 239.173 746.659 239.391 746.081C239.614 745.503 239.725 744.831 239.725 744.064C239.725 743.306 239.616 742.644 239.398 742.075C239.18 741.507 238.861 741.064 238.439 740.747C238.018 740.43 237.497 740.271 236.877 740.271C236.238 740.271 235.705 740.437 235.279 740.769C234.853 741.1 234.531 741.552 234.313 742.125C234.1 742.698 233.993 743.344 233.993 744.064C233.993 744.793 234.102 745.449 234.32 746.031C234.538 746.614 234.86 747.075 235.286 747.416C235.717 747.752 236.247 747.921 236.877 747.921ZM248.746 749.739C247.671 749.739 246.745 749.509 245.969 749.05C245.197 748.586 244.6 747.935 244.179 747.097C243.762 746.254 243.554 745.267 243.554 744.135C243.554 743.018 243.762 742.033 244.179 741.18C244.6 740.328 245.187 739.663 245.94 739.185C246.698 738.707 247.583 738.467 248.597 738.467C249.212 738.467 249.809 738.569 250.386 738.773C250.964 738.976 251.482 739.296 251.942 739.732C252.401 740.167 252.763 740.733 253.028 741.429C253.293 742.12 253.426 742.961 253.426 743.95V744.703H244.754V743.112H251.345C251.345 742.554 251.231 742.059 251.004 741.628C250.777 741.192 250.457 740.849 250.045 740.598C249.638 740.347 249.16 740.222 248.611 740.222C248.014 740.222 247.493 740.368 247.048 740.662C246.608 740.951 246.267 741.33 246.026 741.798C245.789 742.262 245.67 742.767 245.67 743.311V744.554C245.67 745.283 245.798 745.903 246.054 746.415C246.314 746.926 246.677 747.317 247.141 747.587C247.605 747.852 248.147 747.984 248.767 747.984C249.169 747.984 249.536 747.928 249.868 747.814C250.199 747.696 250.486 747.52 250.727 747.288C250.969 747.056 251.153 746.77 251.281 746.429L253.291 746.791C253.13 747.383 252.841 747.902 252.425 748.347C252.013 748.787 251.494 749.13 250.869 749.377C250.249 749.618 249.541 749.739 248.746 749.739ZM269.489 739.568C269.352 739.137 269.167 738.752 268.935 738.411C268.708 738.065 268.436 737.771 268.119 737.53C267.801 737.284 267.439 737.097 267.032 736.969C266.63 736.841 266.187 736.777 265.704 736.777C264.885 736.777 264.146 736.988 263.488 737.409C262.83 737.831 262.309 738.448 261.925 739.263C261.547 740.073 261.357 741.064 261.357 742.239C261.357 743.418 261.549 744.414 261.933 745.229C262.316 746.043 262.842 746.661 263.509 747.082C264.177 747.504 264.937 747.715 265.789 747.715C266.58 747.715 267.269 747.554 267.856 747.232C268.448 746.91 268.905 746.455 269.227 745.868C269.553 745.276 269.717 744.58 269.717 743.78L270.285 743.886H266.123V742.075H271.84V743.73C271.84 744.952 271.58 746.012 271.059 746.912C270.543 747.807 269.828 748.498 268.914 748.986C268.005 749.474 266.963 749.717 265.789 749.717C264.473 749.717 263.318 749.414 262.323 748.808C261.334 748.202 260.562 747.343 260.008 746.23C259.454 745.113 259.177 743.787 259.177 742.253C259.177 741.093 259.338 740.051 259.66 739.128C259.982 738.205 260.434 737.421 261.016 736.777C261.604 736.128 262.292 735.634 263.083 735.293C263.879 734.947 264.747 734.774 265.69 734.774C266.476 734.774 267.207 734.89 267.884 735.122C268.566 735.354 269.172 735.683 269.702 736.109C270.238 736.536 270.68 737.042 271.031 737.629C271.381 738.212 271.618 738.858 271.741 739.568H269.489ZM273.656 749.519V738.609H275.708V740.342H275.822C276.021 739.755 276.371 739.294 276.873 738.957C277.38 738.617 277.953 738.446 278.592 738.446C278.724 738.446 278.881 738.451 279.061 738.46C279.245 738.47 279.39 738.482 279.494 738.496V740.527C279.409 740.503 279.257 740.477 279.039 740.449C278.821 740.416 278.604 740.399 278.386 740.399C277.884 740.399 277.436 740.506 277.043 740.719C276.655 740.927 276.347 741.218 276.12 741.592C275.893 741.962 275.779 742.383 275.779 742.857V749.519H273.656ZM283.609 749.76C282.917 749.76 282.292 749.632 281.734 749.377C281.175 749.116 280.732 748.74 280.405 748.247C280.083 747.755 279.922 747.151 279.922 746.436C279.922 745.821 280.041 745.314 280.278 744.916C280.514 744.519 280.834 744.204 281.236 743.972C281.639 743.74 282.089 743.564 282.586 743.446C283.083 743.328 283.59 743.238 284.106 743.176C284.759 743.1 285.289 743.039 285.697 742.992C286.104 742.939 286.4 742.857 286.584 742.743C286.769 742.629 286.861 742.445 286.861 742.189V742.139C286.861 741.519 286.686 741.038 286.336 740.698C285.99 740.357 285.474 740.186 284.788 740.186C284.073 740.186 283.509 740.345 283.097 740.662C282.69 740.975 282.408 741.323 282.252 741.706L280.256 741.252C280.493 740.589 280.839 740.054 281.293 739.646C281.752 739.234 282.28 738.936 282.877 738.752C283.474 738.562 284.101 738.467 284.759 738.467C285.195 738.467 285.656 738.52 286.144 738.624C286.636 738.723 287.096 738.908 287.522 739.178C287.953 739.448 288.305 739.833 288.58 740.335C288.855 740.832 288.992 741.479 288.992 742.274V749.519H286.918V748.027H286.833C286.696 748.302 286.49 748.572 286.215 748.837C285.94 749.102 285.588 749.322 285.157 749.497C284.726 749.672 284.21 749.76 283.609 749.76ZM284.07 748.055C284.657 748.055 285.159 747.939 285.576 747.707C285.997 747.475 286.317 747.172 286.535 746.798C286.757 746.42 286.868 746.015 286.868 745.584V744.178C286.793 744.253 286.646 744.324 286.428 744.391C286.215 744.452 285.971 744.507 285.697 744.554C285.422 744.597 285.154 744.637 284.894 744.675C284.634 744.708 284.416 744.736 284.241 744.76C283.829 744.812 283.452 744.9 283.111 745.023C282.775 745.146 282.505 745.323 282.302 745.555C282.103 745.783 282.003 746.086 282.003 746.465C282.003 746.99 282.198 747.388 282.586 747.658C282.974 747.923 283.469 748.055 284.07 748.055ZM295.104 749.732C294.224 749.732 293.438 749.507 292.746 749.057C292.06 748.602 291.52 747.956 291.127 747.118C290.739 746.275 290.545 745.264 290.545 744.085C290.545 742.906 290.741 741.898 291.134 741.06C291.532 740.222 292.076 739.58 292.768 739.135C293.459 738.69 294.243 738.467 295.119 738.467C295.796 738.467 296.34 738.581 296.752 738.808C297.169 739.031 297.491 739.291 297.718 739.59C297.95 739.888 298.13 740.151 298.258 740.378H298.386V734.973H300.509V749.519H298.435V747.821H298.258C298.13 748.053 297.945 748.318 297.704 748.617C297.467 748.915 297.14 749.175 296.724 749.398C296.307 749.62 295.767 749.732 295.104 749.732ZM295.573 747.921C296.184 747.921 296.7 747.76 297.121 747.438C297.548 747.111 297.869 746.659 298.087 746.081C298.31 745.503 298.421 744.831 298.421 744.064C298.421 743.306 298.312 742.644 298.094 742.075C297.877 741.507 297.557 741.064 297.136 740.747C296.714 740.43 296.193 740.271 295.573 740.271C294.934 740.271 294.401 740.437 293.975 740.769C293.549 741.1 293.227 741.552 293.009 742.125C292.796 742.698 292.69 743.344 292.69 744.064C292.69 744.793 292.798 745.449 293.016 746.031C293.234 746.614 293.556 747.075 293.982 747.416C294.413 747.752 294.943 747.921 295.573 747.921ZM302.74 749.519V738.609H304.864V749.519H302.74ZM303.812 736.926C303.443 736.926 303.126 736.803 302.861 736.557C302.6 736.306 302.47 736.008 302.47 735.662C302.47 735.312 302.6 735.013 302.861 734.767C303.126 734.516 303.443 734.391 303.812 734.391C304.182 734.391 304.497 734.516 304.757 734.767C305.022 735.013 305.155 735.312 305.155 735.662C305.155 736.008 305.022 736.306 304.757 736.557C304.497 736.803 304.182 736.926 303.812 736.926ZM311.622 749.739C310.547 749.739 309.622 749.509 308.845 749.05C308.073 748.586 307.477 747.935 307.055 747.097C306.639 746.254 306.43 745.267 306.43 744.135C306.43 743.018 306.639 742.033 307.055 741.18C307.477 740.328 308.064 739.663 308.817 739.185C309.574 738.707 310.46 738.467 311.473 738.467C312.089 738.467 312.685 738.569 313.263 738.773C313.841 738.976 314.359 739.296 314.818 739.732C315.278 740.167 315.64 740.733 315.905 741.429C316.17 742.12 316.303 742.961 316.303 743.95V744.703H307.631V743.112H314.222C314.222 742.554 314.108 742.059 313.881 741.628C313.653 741.192 313.334 740.849 312.922 740.598C312.515 740.347 312.037 740.222 311.487 740.222C310.891 740.222 310.37 740.368 309.925 740.662C309.484 740.951 309.144 741.33 308.902 741.798C308.665 742.262 308.547 742.767 308.547 743.311V744.554C308.547 745.283 308.675 745.903 308.93 746.415C309.191 746.926 309.553 747.317 310.017 747.587C310.481 747.852 311.023 747.984 311.644 747.984C312.046 747.984 312.413 747.928 312.744 747.814C313.076 747.696 313.362 747.52 313.604 747.288C313.845 747.056 314.03 746.77 314.158 746.429L316.168 746.791C316.007 747.383 315.718 747.902 315.301 748.347C314.889 748.787 314.371 749.13 313.746 749.377C313.126 749.618 312.418 749.739 311.622 749.739ZM319.982 743.041V749.519H317.859V738.609H319.897V740.385H320.032C320.283 739.807 320.676 739.343 321.211 738.993C321.751 738.643 322.43 738.467 323.249 738.467C323.993 738.467 324.644 738.624 325.203 738.936C325.761 739.244 326.195 739.703 326.502 740.314C326.81 740.925 326.964 741.68 326.964 742.58V749.519H324.84V742.835C324.84 742.045 324.634 741.427 324.222 740.982C323.811 740.532 323.245 740.307 322.525 740.307C322.033 740.307 321.595 740.413 321.211 740.627C320.832 740.84 320.532 741.152 320.309 741.564C320.091 741.971 319.982 742.464 319.982 743.041ZM334.104 738.609V740.314H328.145V738.609H334.104ZM329.743 735.996H331.867V746.315C331.867 746.727 331.929 747.037 332.052 747.246C332.175 747.449 332.333 747.589 332.528 747.665C332.726 747.736 332.942 747.771 333.174 747.771C333.344 747.771 333.493 747.76 333.621 747.736C333.749 747.712 333.849 747.693 333.92 747.679L334.303 749.433C334.18 749.481 334.005 749.528 333.778 749.575C333.55 749.627 333.266 749.656 332.925 749.661C332.367 749.67 331.846 749.571 331.363 749.362C330.88 749.154 330.489 748.832 330.191 748.396C329.893 747.961 329.743 747.414 329.743 746.756V735.996ZM157.48 781.519L159.866 766.973H161.571L159.184 781.519H157.48ZM150.896 777.627L151.173 775.922H162.196L161.919 777.627H150.896ZM152.366 781.519L154.752 766.973H156.457L154.071 781.519H152.366ZM151.741 772.57L152.018 770.865H163.041L162.764 772.57H151.741ZM164.13 781.519V766.973H173.15V768.862H166.325V773.294H172.504V775.176H166.325V781.519H164.13ZM175.049 781.519V766.973H184.069V768.862H177.243V773.294H183.422V775.176H177.243V781.519H175.049ZM185.968 781.519V766.973H194.987V768.862H188.162V773.294H194.341V775.176H188.162V781.519H185.968ZM196.886 781.519V766.973H205.906V768.862H199.081V773.294H205.26V775.176H199.081V781.519H196.886ZM207.805 781.519V766.973H216.825V768.862H210V773.294H216.179V775.176H210V781.519H207.805ZM218.724 781.519V766.973H227.744V768.862H220.918V773.294H227.097V775.176H220.918V781.519H218.724ZM240.393 773.323V775.169H233.944V773.323H240.393ZM252.37 781.519L254.757 766.973H256.461L254.075 781.519H252.37ZM245.787 777.627L246.064 775.922H257.086L256.809 777.627H245.787ZM247.257 781.519L249.643 766.973H251.348L248.961 781.519H247.257ZM246.632 772.57L246.909 770.865H257.931L257.654 772.57H246.632ZM258.822 781.519V779.928L263.744 774.828C264.269 774.274 264.702 773.789 265.043 773.372C265.389 772.951 265.647 772.551 265.818 772.172C265.988 771.793 266.073 771.391 266.073 770.965C266.073 770.482 265.96 770.065 265.732 769.715C265.505 769.359 265.195 769.087 264.802 768.898C264.409 768.704 263.966 768.607 263.474 768.607C262.953 768.607 262.498 768.713 262.11 768.926C261.722 769.139 261.424 769.44 261.215 769.828C261.007 770.216 260.903 770.671 260.903 771.192H258.808C258.808 770.306 259.011 769.532 259.418 768.869C259.826 768.207 260.384 767.693 261.095 767.328C261.805 766.959 262.612 766.774 263.516 766.774C264.43 766.774 265.235 766.957 265.931 767.321C266.632 767.681 267.179 768.173 267.572 768.798C267.965 769.419 268.161 770.119 268.161 770.901C268.161 771.44 268.059 771.968 267.856 772.484C267.657 773.001 267.309 773.576 266.812 774.21C266.315 774.84 265.623 775.605 264.738 776.504L261.847 779.53V779.636H268.396V781.519H258.822ZM270.287 781.519V779.928L275.209 774.828C275.735 774.274 276.168 773.789 276.509 773.372C276.855 772.951 277.113 772.551 277.283 772.172C277.454 771.793 277.539 771.391 277.539 770.965C277.539 770.482 277.425 770.065 277.198 769.715C276.971 769.359 276.661 769.087 276.268 768.898C275.875 768.704 275.432 768.607 274.939 768.607C274.419 768.607 273.964 768.713 273.576 768.926C273.188 769.139 272.889 769.44 272.681 769.828C272.473 770.216 272.368 770.671 272.368 771.192H270.273C270.273 770.306 270.477 769.532 270.884 768.869C271.291 768.207 271.85 767.693 272.56 767.328C273.27 766.959 274.078 766.774 274.982 766.774C275.896 766.774 276.701 766.957 277.397 767.321C278.098 767.681 278.644 768.173 279.037 768.798C279.43 769.419 279.627 770.119 279.627 770.901C279.627 771.44 279.525 771.968 279.322 772.484C279.123 773.001 278.775 773.576 278.277 774.21C277.78 774.84 277.089 775.605 276.204 776.504L273.313 779.53V779.636H279.861V781.519H270.287ZM286.661 781.519H281.952V766.973H286.81C288.235 766.973 289.459 767.264 290.482 767.847C291.504 768.424 292.288 769.255 292.833 770.34C293.382 771.419 293.656 772.714 293.656 774.225C293.656 775.74 293.379 777.042 292.826 778.131C292.276 779.22 291.481 780.058 290.439 780.645C289.397 781.227 288.138 781.519 286.661 781.519ZM284.147 779.601H286.54C287.648 779.601 288.569 779.393 289.303 778.976C290.037 778.555 290.586 777.946 290.951 777.151C291.315 776.35 291.497 775.375 291.497 774.225C291.497 773.083 291.315 772.115 290.951 771.32C290.591 770.524 290.053 769.921 289.338 769.509C288.623 769.097 287.736 768.891 286.675 768.891H284.147V779.601ZM300.451 781.717C299.475 781.717 298.604 781.549 297.837 781.213C297.075 780.877 296.471 780.411 296.026 779.814C295.586 779.213 295.349 778.517 295.316 777.726H297.546C297.574 778.157 297.719 778.531 297.979 778.848C298.244 779.161 298.59 779.402 299.016 779.573C299.442 779.743 299.916 779.828 300.436 779.828C301.009 779.828 301.516 779.729 301.956 779.53C302.401 779.331 302.749 779.054 303 778.699C303.251 778.339 303.377 777.925 303.377 777.456C303.377 776.968 303.251 776.54 303 776.171C302.754 775.796 302.392 775.503 301.914 775.29C301.44 775.077 300.867 774.97 300.195 774.97H298.966V773.18H300.195C300.735 773.18 301.208 773.083 301.615 772.889C302.027 772.695 302.349 772.425 302.581 772.08C302.813 771.729 302.929 771.32 302.929 770.851C302.929 770.401 302.827 770.011 302.624 769.679C302.425 769.343 302.141 769.08 301.772 768.891C301.407 768.701 300.976 768.607 300.479 768.607C300.005 768.607 299.563 768.694 299.151 768.869C298.744 769.04 298.412 769.286 298.157 769.608C297.901 769.925 297.764 770.306 297.745 770.752H295.621C295.645 769.966 295.877 769.274 296.317 768.678C296.762 768.081 297.349 767.615 298.078 767.278C298.808 766.942 299.617 766.774 300.507 766.774C301.44 766.774 302.245 766.957 302.922 767.321C303.604 767.681 304.13 768.162 304.499 768.763C304.873 769.364 305.058 770.022 305.053 770.737C305.058 771.552 304.83 772.243 304.371 772.811C303.916 773.379 303.31 773.761 302.553 773.955V774.068C303.519 774.215 304.267 774.599 304.797 775.219C305.332 775.839 305.597 776.609 305.593 777.527C305.597 778.327 305.375 779.045 304.925 779.679C304.48 780.314 303.871 780.813 303.1 781.178C302.328 781.537 301.445 781.717 300.451 781.717ZM307.676 781.519V766.973H316.795V768.862H309.871V773.294H316.32V775.176H309.871V779.629H316.881V781.519H307.676ZM318.927 781.519V766.973H328.046V768.862H321.122V773.294H327.57V775.176H321.122V779.629H328.131V781.519H318.927Z" fill="#062C35"/>
</g>
<defs>
<linearGradient id="paint0_linear_1652_1944" x1="-245.863" y1="409.5" x2="423.487" y2="409.5" gradientUnits="userSpaceOnUse">
<stop stop-color="white"/>
<stop offset="1" stop-color="#22D3EE"/>
</linearGradient>
<clipPath id="clip0_1652_1944">
<rect width="468.667" height="819" fill="white"/>
</clipPath>
</defs>
</svg>
