<svg width="95" height="95" viewBox="0 0 95 95" fill="none" xmlns="http://www.w3.org/2000/svg">
<path d="M44.089 54.2578H67.8231V77.9919C67.8231 79.8619 66.3128 81.3866 64.4284 81.3866H44.089C42.2191 81.3866 40.6943 79.8763 40.6943 77.9919V57.6525C40.6943 55.7825 42.2047 54.2578 44.089 54.2578Z" fill="#062C35"/>
<path d="M50.8651 40.6931H27.131V16.959C27.131 15.0891 28.6413 13.5643 30.5257 13.5643H50.8651C52.735 13.5643 54.2598 15.0747 54.2598 16.959V37.2984C54.2598 39.1684 52.7494 40.6931 50.8651 40.6931Z" fill="#062C35"/>
<path d="M94.9511 3.3947V50.8629C94.9511 52.7328 93.4407 54.2576 91.5564 54.2576H67.8223V3.3947C67.8223 1.52474 69.3326 0 71.217 0H91.5564C93.4263 0 94.9511 1.51035 94.9511 3.3947Z" fill="#062C35"/>
<path d="M0.000114441 91.5562V44.088C0.000114441 42.2181 1.51047 40.6933 3.39481 40.6933H27.1289V91.5562C27.1289 93.4262 25.6186 94.9509 23.7342 94.9509H3.39481C1.52485 94.9509 0.000114441 93.4406 0.000114441 91.5562Z" fill="#062C35"/>
</svg>
