<svg width="715" height="721" viewBox="0 0 715 721" fill="none" xmlns="http://www.w3.org/2000/svg">
<g clip-path="url(#clip0_1774_30942)">
<rect width="715" height="721" fill="#B9EFF4"/>
<mask id="path-1-inside-1_1774_30942" fill="white">
<path d="M590.247 87C603.2 87.0002 613.762 97.4628 613.762 110.516V439.331C613.762 452.284 603.3 462.846 590.247 462.847H433.802V618.523C433.802 631.477 423.339 642.039 410.286 642.039H269.394C256.44 642.039 245.878 631.576 245.878 618.523V477.632C245.878 464.678 256.341 454.116 269.394 454.116H425.839V110.516C425.839 97.5623 436.301 87 449.354 87H590.247Z"/>
</mask>
<path d="M590.247 87L590.247 79H590.247V87ZM613.762 439.331H621.762V439.331H613.762ZM590.247 462.847V470.847H590.247L590.247 462.847ZM433.802 462.847V454.847H425.802V462.847H433.802ZM410.286 642.039V650.039H410.286L410.286 642.039ZM425.839 454.116V462.116H433.839V454.116H425.839ZM590.247 87L590.247 95C598.804 95.0001 605.762 101.903 605.762 110.516H613.762H621.762C621.762 93.0227 607.597 79.0003 590.247 79L590.247 87ZM613.762 110.516H605.762V439.331H613.762H621.762V110.516H613.762ZM613.762 439.331H605.762C605.762 447.888 598.859 454.847 590.247 454.847L590.247 462.847L590.247 470.847C607.741 470.846 621.762 456.68 621.762 439.331H613.762ZM590.247 462.847V454.847H433.802V462.847V470.847H590.247V462.847ZM433.802 462.847H425.802V618.523H433.802H441.802V462.847H433.802ZM433.802 618.523H425.802C425.802 627.081 418.899 634.039 410.286 634.039L410.286 642.039L410.286 650.039C427.779 650.039 441.802 635.873 441.802 618.523H433.802ZM410.286 642.039V634.039H269.394V642.039V650.039H410.286V642.039ZM269.394 642.039V634.039C260.836 634.039 253.878 627.136 253.878 618.523H245.878H237.878C237.878 636.017 252.044 650.039 269.394 650.039V642.039ZM245.878 618.523H253.878V477.632H245.878H237.878V618.523H245.878ZM245.878 477.632H253.878C253.878 469.075 260.781 462.116 269.394 462.116V454.116V446.116C251.9 446.116 237.878 460.282 237.878 477.632H245.878ZM269.394 454.116V462.116H425.839V454.116V446.116H269.394V454.116ZM425.839 454.116H433.839V110.516H425.839H417.839V454.116H425.839ZM425.839 110.516H433.839C433.839 101.958 440.742 95 449.354 95V87V79C431.861 79 417.839 93.1661 417.839 110.516H425.839ZM449.354 87V95H590.247V87V79H449.354V87Z" fill="#A1D4DE" mask="url(#path-1-inside-1_1774_30942)"/>
<mask id="path-3-inside-2_1774_30942" fill="white">
<path d="M308.668 180.962C321.621 180.962 332.183 191.424 332.184 204.477V345.369C332.184 358.322 321.721 368.885 308.668 368.885H151.923V712.485C151.923 725.438 141.46 736 128.407 736H-12.4854C-25.4383 736 -35.9997 725.538 -36 712.485V383.669C-35.9999 370.716 -25.5381 360.155 -12.4854 360.154H144.261V204.477C144.261 191.523 154.723 180.962 167.775 180.962H308.668Z"/>
</mask>
<path d="M332.184 204.477H340.184V204.476L332.184 204.477ZM151.923 368.885V360.885H143.923V368.885H151.923ZM151.923 712.485L159.923 712.486V712.485H151.923ZM-12.4854 736L-12.4855 744H-12.4854V736ZM-36 712.485H-44V712.486L-36 712.485ZM-36 383.669L-44 383.669V383.669H-36ZM-12.4854 360.154V352.154H-12.4855L-12.4854 360.154ZM144.261 360.154V368.154H152.261V360.154H144.261ZM144.261 204.477L136.261 204.476V204.477H144.261ZM167.775 180.962V172.962H167.775L167.775 180.962ZM308.668 180.962V188.962C317.225 188.962 324.183 195.864 324.184 204.477L332.184 204.477L340.184 204.476C340.183 186.983 326.017 172.962 308.668 172.962V180.962ZM332.184 204.477H324.184V345.369H332.184H340.184V204.477H332.184ZM332.184 345.369H324.184C324.184 353.926 317.281 360.885 308.668 360.885V368.885V376.885C326.161 376.885 340.184 362.719 340.184 345.369H332.184ZM308.668 368.885V360.885H151.923V368.885V376.885H308.668V368.885ZM151.923 368.885H143.923V712.485H151.923H159.923V368.885H151.923ZM151.923 712.485L143.923 712.485C143.923 721.042 137.02 728 128.407 728V736V744C145.9 744 159.923 729.835 159.923 712.486L151.923 712.485ZM128.407 736V728H-12.4854V736V744H128.407V736ZM-12.4854 736L-12.4852 728C-21.0421 728 -27.9998 721.098 -28 712.485L-36 712.485L-44 712.486C-43.9997 729.978 -29.8346 744 -12.4855 744L-12.4854 736ZM-36 712.485H-28V383.669H-36H-44V712.485H-36ZM-36 383.669L-28 383.669C-27.9999 375.112 -21.0978 368.154 -12.4852 368.154L-12.4854 360.154L-12.4855 352.154C-29.9784 352.155 -43.9998 366.32 -44 383.669L-36 383.669ZM-12.4854 360.154V368.154H144.261V360.154V352.154H-12.4854V360.154ZM144.261 360.154H152.261V204.477H144.261H136.261V360.154H144.261ZM144.261 204.477L152.261 204.477C152.261 195.92 159.163 188.962 167.776 188.962L167.775 180.962L167.775 172.962C150.282 172.962 136.261 187.127 136.261 204.476L144.261 204.477ZM167.775 180.962V188.962H308.668V180.962V172.962H167.775V180.962Z" fill="#A1D4DE" mask="url(#path-3-inside-2_1774_30942)"/>
</g>
<defs>
<clipPath id="clip0_1774_30942">
<rect width="715" height="721" fill="white"/>
</clipPath>
</defs>
</svg>
