<svg width="715" height="721" viewBox="0 0 715 721" fill="none" xmlns="http://www.w3.org/2000/svg">
<g clip-path="url(#clip0_1747_6128)">
<rect width="715" height="721" fill="#042027"/>
<g opacity="0.4">
<mask id="path-1-inside-1_1747_6128" fill="white">
<path d="M762.978 -20.9277C775.931 -20.9275 786.492 -10.465 786.492 2.58789V331.403C786.492 344.357 776.03 354.919 762.978 354.919H606.532V510.596C606.532 523.549 596.07 534.111 583.017 534.111H442.124C429.171 534.111 418.608 523.649 418.608 510.596V369.704C418.608 356.751 429.071 346.188 442.124 346.188H598.569V2.58789C598.569 -10.3655 609.032 -20.9277 622.085 -20.9277H762.978Z"/>
</mask>
<path d="M762.978 -20.9277L762.978 -28.9277H762.978V-20.9277ZM786.492 331.403H794.492V331.403H786.492ZM762.978 354.919V362.919H762.978L762.978 354.919ZM606.532 354.919V346.919H598.532V354.919H606.532ZM583.017 534.111V542.111H583.017L583.017 534.111ZM598.569 346.188V354.188H606.569V346.188H598.569ZM762.978 -20.9277L762.977 -12.9277C771.534 -12.9276 778.492 -6.02495 778.492 2.58789H786.492H794.492C794.492 -14.905 780.327 -28.9275 762.978 -28.9277L762.978 -20.9277ZM786.492 2.58789H778.492V331.403H786.492H794.492V2.58789H786.492ZM786.492 331.403H778.492C778.492 339.961 771.59 346.919 762.977 346.919L762.978 354.919L762.978 362.919C780.471 362.919 794.492 348.752 794.492 331.403H786.492ZM762.978 354.919V346.919H606.532V354.919V362.919H762.978V354.919ZM606.532 354.919H598.532V510.596H606.532H614.532V354.919H606.532ZM606.532 510.596H598.532C598.532 519.153 591.629 526.111 583.017 526.111L583.017 534.111L583.017 542.111C600.51 542.111 614.532 527.945 614.532 510.596H606.532ZM583.017 534.111V526.111H442.124V534.111V542.111H583.017V534.111ZM442.124 534.111V526.111C433.567 526.111 426.608 519.208 426.608 510.596H418.608H410.608C410.608 528.089 424.775 542.111 442.124 542.111V534.111ZM418.608 510.596H426.608V369.704H418.608H410.608V510.596H418.608ZM418.608 369.704H426.608C426.608 361.147 433.511 354.188 442.124 354.188V346.188V338.188C424.631 338.188 410.608 352.355 410.608 369.704H418.608ZM442.124 346.188V354.188H598.569V346.188V338.188H442.124V346.188ZM598.569 346.188H606.569V2.58789H598.569H590.569V346.188H598.569ZM598.569 2.58789H606.569C606.569 -5.96928 613.472 -12.9277 622.085 -12.9277V-20.9277V-28.9277C604.592 -28.9277 590.569 -14.7616 590.569 2.58789H598.569ZM622.085 -20.9277V-12.9277H762.978V-20.9277V-28.9277H622.085V-20.9277Z" fill="url(#paint0_radial_1747_6128)" mask="url(#path-1-inside-1_1747_6128)"/>
<mask id="path-3-inside-2_1747_6128" fill="white">
<path d="M481.398 73.0342C494.352 73.0342 504.914 83.496 504.914 96.5488V237.441C504.914 250.395 494.451 260.957 481.398 260.957H324.653V604.558C324.653 617.511 314.191 628.072 301.138 628.072H160.245C147.292 628.072 136.731 617.61 136.73 604.558V275.741C136.731 262.788 147.192 252.227 160.245 252.227H316.991V96.5488C316.991 83.5958 327.453 73.0344 340.506 73.0342H481.398Z"/>
</mask>
<path d="M504.914 96.5488H512.914V96.5487L504.914 96.5488ZM324.653 260.957V252.957H316.653V260.957H324.653ZM324.653 604.558L332.653 604.558V604.558H324.653ZM160.245 628.072L160.245 636.072H160.245V628.072ZM136.73 604.558H128.73V604.558L136.73 604.558ZM136.73 275.741L128.73 275.741V275.741H136.73ZM160.245 252.227V244.227H160.245L160.245 252.227ZM316.991 252.227V260.227H324.991V252.227H316.991ZM316.991 96.5488L308.991 96.5487V96.5488H316.991ZM340.506 73.0342V65.0342H340.506L340.506 73.0342ZM481.398 73.0342V81.0342C489.956 81.0342 496.914 87.9367 496.914 96.5489L504.914 96.5488L512.914 96.5487C512.914 79.0553 498.748 65.0342 481.398 65.0342V73.0342ZM504.914 96.5488H496.914V237.441H504.914H512.914V96.5488H504.914ZM504.914 237.441H496.914C496.914 245.999 490.011 252.957 481.398 252.957V260.957V268.957C498.892 268.957 512.914 254.791 512.914 237.441H504.914ZM481.398 260.957V252.957H324.653V260.957V268.957H481.398V260.957ZM324.653 260.957H316.653V604.558H324.653H332.653V260.957H324.653ZM324.653 604.558L316.653 604.557C316.653 613.114 309.75 620.072 301.138 620.072V628.072V636.072C318.631 636.072 332.653 621.907 332.653 604.558L324.653 604.558ZM301.138 628.072V620.072H160.245V628.072V636.072H301.138V628.072ZM160.245 628.072L160.245 620.072C151.688 620.072 144.731 613.17 144.73 604.557L136.73 604.558L128.73 604.558C128.731 622.051 142.896 636.072 160.245 636.072L160.245 628.072ZM136.73 604.558H144.73V275.741H136.73H128.73V604.558H136.73ZM136.73 275.741L144.73 275.741C144.731 267.184 151.633 260.227 160.245 260.227L160.245 252.227L160.245 244.227C142.752 244.227 128.731 258.392 128.73 275.741L136.73 275.741ZM160.245 252.227V260.227H316.991V252.227V244.227H160.245V252.227ZM316.991 252.227H324.991V96.5488H316.991H308.991V252.227H316.991ZM316.991 96.5488L324.991 96.5489C324.991 87.992 331.894 81.0343 340.506 81.0342L340.506 73.0342L340.506 65.0342C323.013 65.0344 308.991 79.1996 308.991 96.5487L316.991 96.5488ZM340.506 73.0342V81.0342H481.398V73.0342V65.0342H340.506V73.0342Z" fill="url(#paint1_radial_1747_6128)" mask="url(#path-3-inside-2_1747_6128)"/>
</g>
</g>
<defs>
<radialGradient id="paint0_radial_1747_6128" cx="0" cy="0" r="1" gradientUnits="userSpaceOnUse" gradientTransform="translate(488.381 255.937) scale(262.926 397.289)">
<stop stop-color="white"/>
<stop offset="1" stop-color="#22D3EE"/>
</radialGradient>
<radialGradient id="paint1_radial_1747_6128" cx="0" cy="0" r="1" gradientUnits="userSpaceOnUse" gradientTransform="translate(206.56 349.898) scale(263.141 397.288)">
<stop stop-color="white"/>
<stop offset="1" stop-color="#22D3EE"/>
</radialGradient>
<clipPath id="clip0_1747_6128">
<rect width="715" height="721" fill="white"/>
</clipPath>
</defs>
</svg>
