<svg width="650" height="596" viewBox="0 0 650 596" fill="none" xmlns="http://www.w3.org/2000/svg">
<g clip-path="url(#clip0_1_4213)">
<mask id="path-1-inside-1_1_4213" fill="white">
<path d="M626.247 0C639.2 0.000188716 649.762 10.4628 649.762 23.5156V352.331C649.762 365.284 639.3 375.846 626.247 375.847H469.801V531.525C469.801 544.478 459.339 555.04 446.286 555.04H305.394C292.441 555.04 281.878 544.578 281.878 531.525V390.633C281.878 377.679 292.341 367.117 305.394 367.117H461.839V23.5156C461.839 10.5623 472.302 0 485.355 0H626.247Z"/>
</mask>
<path d="M626.247 0L626.247 -8H626.247V0ZM649.762 352.331H657.762V352.331H649.762ZM626.247 375.847V383.847H626.247L626.247 375.847ZM469.801 375.847V367.847H461.801V375.847H469.801ZM469.801 531.525L477.801 531.526V531.525H469.801ZM446.286 555.04V563.04H446.286L446.286 555.04ZM281.878 531.525H273.878V531.526L281.878 531.525ZM461.839 367.117V375.117H469.839V367.117H461.839ZM626.247 0L626.247 8C634.804 8.00012 641.762 14.9028 641.762 23.5156H649.762H657.762C657.762 6.02273 643.597 -7.99975 626.247 -8L626.247 0ZM649.762 23.5156H641.762V352.331H649.762H657.762V23.5156H649.762ZM649.762 352.331H641.762C641.762 360.888 634.859 367.847 626.247 367.847L626.247 375.847L626.247 383.847C643.741 383.846 657.762 369.68 657.762 352.331H649.762ZM626.247 375.847V367.847H469.801V375.847V383.847H626.247V375.847ZM469.801 375.847H461.801V531.525H469.801H477.801V375.847H469.801ZM469.801 531.525L461.801 531.525C461.801 540.082 454.899 547.04 446.286 547.04L446.286 555.04L446.286 563.04C463.779 563.04 477.801 548.875 477.801 531.526L469.801 531.525ZM446.286 555.04V547.04H305.394V555.04V563.04H446.286V555.04ZM305.394 555.04V547.04C296.836 547.04 289.878 540.138 289.878 531.525L281.878 531.525L273.878 531.526C273.878 549.019 288.045 563.04 305.394 563.04V555.04ZM281.878 531.525H289.878V390.633H281.878H273.878V531.525H281.878ZM281.878 390.633H289.878C289.878 382.076 296.781 375.117 305.394 375.117V367.117V359.117C287.9 359.117 273.878 373.283 273.878 390.633H281.878ZM305.394 367.117V375.117H461.839V367.117V359.117H305.394V367.117ZM461.839 367.117H469.839V23.5156H461.839H453.839V367.117H461.839ZM461.839 23.5156H469.839C469.839 14.9585 476.742 8 485.355 8V0V-8C467.861 -8 453.839 6.1661 453.839 23.5156H461.839ZM485.355 0V8H626.247V0V-8H485.355V0Z" fill="#A1D4DE" mask="url(#path-1-inside-1_1_4213)"/>
<mask id="path-3-inside-2_1_4213" fill="white">
<path d="M344.668 93.9609C357.621 93.9609 368.183 104.423 368.184 117.476V258.368C368.184 271.322 357.721 281.884 344.668 281.884H187.923V625.485C187.923 638.439 177.46 649.001 164.407 649.001H23.5146C10.5615 649.001 0 638.538 0 625.485V296.67C2.06348e-05 283.717 10.4618 273.154 23.5146 273.154H180.261V117.476C180.261 104.523 190.723 93.9611 203.775 93.9609H344.668Z"/>
</mask>
<path d="M368.184 117.476H376.184V117.475L368.184 117.476ZM187.923 281.884V273.884H179.923V281.884H187.923ZM23.5146 649.001L23.5145 657.001H23.5146V649.001ZM0 296.67L-8 296.67V296.67H0ZM23.5146 273.154V265.154H23.5145L23.5146 273.154ZM180.261 273.154V281.154H188.261V273.154H180.261ZM180.261 117.476L172.261 117.475V117.476H180.261ZM203.775 93.9609V85.9609H203.775L203.775 93.9609ZM344.668 93.9609V101.961C353.225 101.961 360.183 108.863 360.184 117.476L368.184 117.476L376.184 117.475C376.183 99.9821 362.017 85.9609 344.668 85.9609V93.9609ZM368.184 117.476H360.184V258.368H368.184H376.184V117.476H368.184ZM368.184 258.368H360.184C360.184 266.925 353.281 273.884 344.668 273.884V281.884V289.884C362.161 289.884 376.184 275.718 376.184 258.368H368.184ZM344.668 281.884V273.884H187.923V281.884V289.884H344.668V281.884ZM187.923 281.884H179.923V625.485H187.923H195.923V281.884H187.923ZM187.923 625.485H179.923C179.923 634.043 173.02 641.001 164.407 641.001V649.001V657.001C181.901 657.001 195.923 642.835 195.923 625.485H187.923ZM164.407 649.001V641.001H23.5146V649.001V657.001H164.407V649.001ZM23.5146 649.001L23.5148 641.001C14.958 641.001 8 634.098 8 625.485H0H-8C-8 642.978 6.16494 657.001 23.5145 657.001L23.5146 649.001ZM0 625.485H8V296.67H0H-8V625.485H0ZM0 296.67L8 296.67C8.00001 288.113 14.9025 281.154 23.5148 281.154L23.5146 273.154L23.5145 265.154C6.02114 265.155 -7.99997 279.321 -8 296.67L0 296.67ZM23.5146 273.154V281.154H180.261V273.154V265.154H23.5146V273.154ZM180.261 273.154H188.261V117.476H180.261H172.261V273.154H180.261ZM180.261 117.476L188.261 117.476C188.261 108.919 195.163 101.961 203.776 101.961L203.775 93.9609L203.775 85.9609C186.282 85.9612 172.261 100.126 172.261 117.475L180.261 117.476ZM203.775 93.9609V101.961H344.668V93.9609V85.9609H203.775V93.9609Z" fill="#A1D4DE" mask="url(#path-3-inside-2_1_4213)"/>
</g>
<defs>
<clipPath id="clip0_1_4213">
<rect width="650" height="649" fill="white"/>
</clipPath>
</defs>
</svg>
