<svg width="600" height="106" viewBox="0 0 600 106" fill="none" xmlns="http://www.w3.org/2000/svg">
<path d="M155.058 23.557C162.795 23.557 169.384 26.5064 174.823 32.4052C180.339 38.2274 183.097 45.3902 183.097 53.8937C183.097 62.3972 180.339 69.5984 174.823 75.4972C169.384 81.3194 162.795 84.2305 155.058 84.2305C147.014 84.2305 140.809 81.4343 136.442 75.8419V105.604H121.619V25.1657H136.442V31.9455C140.809 26.3532 147.014 23.557 155.058 23.557ZM140.924 65.6148C143.912 68.6025 147.704 70.0963 152.3 70.0963C156.897 70.0963 160.689 68.6025 163.676 65.6148C166.741 62.5504 168.273 58.6434 168.273 53.8937C168.273 49.144 166.741 45.2753 163.676 42.2876C160.689 39.2233 156.897 37.6911 152.3 37.6911C147.704 37.6911 143.912 39.2233 140.924 42.2876C137.936 45.2753 136.442 49.144 136.442 53.8937C136.442 58.6434 137.936 62.5504 140.924 65.6148Z" fill="#062C35"/>
<path d="M206.076 35.0482C207.455 31.371 209.715 28.6131 212.856 26.7745C216.074 24.9359 219.636 24.0166 223.543 24.0166V40.5639C219.023 40.0277 214.963 40.947 211.362 43.3218C207.838 45.6967 206.076 49.642 206.076 55.1578V82.6217H191.253V25.1657H206.076V35.0482Z" fill="#062C35"/>
<path d="M276.735 75.4972C270.836 81.3194 263.635 84.2305 255.131 84.2305C246.628 84.2305 239.427 81.3194 233.528 75.4972C227.705 69.5984 224.794 62.3972 224.794 53.8937C224.794 45.3902 227.705 38.2274 233.528 32.4052C239.427 26.5064 246.628 23.557 255.131 23.557C263.635 23.557 270.836 26.5064 276.735 32.4052C282.633 38.2274 285.583 45.3902 285.583 53.8937C285.583 62.3972 282.633 69.5984 276.735 75.4972ZM243.985 65.27C246.972 68.2577 250.688 69.7516 255.131 69.7516C259.574 69.7516 263.29 68.2577 266.278 65.27C269.265 62.2823 270.759 58.4902 270.759 53.8937C270.759 49.2973 269.265 45.5052 266.278 42.5174C263.29 39.5297 259.574 38.0359 255.131 38.0359C250.688 38.0359 246.972 39.5297 243.985 42.5174C241.074 45.5052 239.618 49.2973 239.618 53.8937C239.618 58.4902 241.074 62.2823 243.985 65.27Z" fill="#062C35"/>
<path d="M342.665 75.4972C336.767 81.3194 329.565 84.2305 321.062 84.2305C312.558 84.2305 305.357 81.3194 299.458 75.4972C293.636 69.5984 290.725 62.3972 290.725 53.8937C290.725 45.3902 293.636 38.2274 299.458 32.4052C305.357 26.5064 312.558 23.557 321.062 23.557C329.565 23.557 336.767 26.5064 342.665 32.4052C348.564 38.2274 351.514 45.3902 351.514 53.8937C351.514 62.3972 348.564 69.5984 342.665 75.4972ZM309.915 65.27C312.903 68.2577 316.619 69.7516 321.062 69.7516C325.505 69.7516 329.221 68.2577 332.208 65.27C335.196 62.2823 336.69 58.4902 336.69 53.8937C336.69 49.2973 335.196 45.5052 332.208 42.5174C329.221 39.5297 325.505 38.0359 321.062 38.0359C316.619 38.0359 312.903 39.5297 309.915 42.5174C307.004 45.5052 305.549 49.2973 305.549 53.8937C305.549 58.4902 307.004 62.2823 309.915 65.27Z" fill="#062C35"/>
<path d="M388.759 14.8237C380.639 14.2108 376.579 17.4666 376.579 24.5912V25.1657H388.759V39.4148H376.579V82.6217H361.755V39.4148H353.481V25.1657H361.755V24.5912C361.755 16.4707 364.015 10.3038 368.535 6.09034C373.055 1.8769 379.796 0.0383058 388.759 0.57456V14.8237Z" fill="#062C35"/>
<path d="M434.675 2.18333H449.499V82.6217H434.675V75.8419C430.308 81.4343 424.103 84.2305 416.059 84.2305C408.322 84.2305 401.695 81.3194 396.179 75.4972C390.74 69.5984 388.021 62.3972 388.021 53.8937C388.021 45.3902 390.74 38.2274 396.179 32.4052C401.695 26.5064 408.322 23.557 416.059 23.557C424.103 23.557 430.308 26.3532 434.675 31.9455V2.18333ZM407.326 65.6148C410.39 68.6025 414.221 70.0963 418.817 70.0963C423.414 70.0963 427.206 68.6025 430.193 65.6148C433.181 62.5504 434.675 58.6434 434.675 53.8937C434.675 49.144 433.181 45.2753 430.193 42.2876C427.206 39.2233 423.414 37.6911 418.817 37.6911C414.221 37.6911 410.39 39.2233 407.326 42.2876C404.338 45.2753 402.844 49.144 402.844 53.8937C402.844 58.6434 404.338 62.5504 407.326 65.6148Z" fill="#062C35"/>
<path d="M468.112 18.271C465.66 18.271 463.515 17.39 461.677 15.628C459.915 13.7894 459.034 11.6444 459.034 9.19296C459.034 6.74151 459.915 4.59648 461.677 2.75789C463.515 0.919296 465.66 0 468.112 0C470.64 0 472.785 0.919296 474.547 2.75789C476.385 4.59648 477.305 6.74151 477.305 9.19296C477.305 11.6444 476.385 13.7894 474.547 15.628C472.785 17.39 470.64 18.271 468.112 18.271ZM460.757 82.6217V25.1657H475.581V82.6217H460.757Z" fill="#062C35"/>
<path d="M524.656 25.1657H540.974L519.141 82.6217H502.249L480.415 25.1657H496.733L510.637 65.3849L524.656 25.1657Z" fill="#062C35"/>
<path d="M556.105 59.9841C558.096 67.1852 563.497 70.7858 572.307 70.7858C577.976 70.7858 582.266 68.8706 585.177 65.0402L597.128 71.9349C591.459 80.132 583.109 84.2305 572.077 84.2305C562.578 84.2305 554.955 81.3577 549.21 75.6121C543.464 69.8665 540.591 62.6271 540.591 53.8937C540.591 45.237 543.426 38.0359 549.095 32.2903C554.764 26.4681 562.042 23.557 570.928 23.557C579.355 23.557 586.288 26.4681 591.727 32.2903C597.243 38.1125 600.001 45.3136 600.001 53.8937C600.001 55.8089 599.809 57.8391 599.426 59.9841H556.105ZM555.875 48.4929H585.177C584.335 44.5859 582.573 41.6748 579.891 39.7596C577.287 37.8444 574.299 36.8868 570.928 36.8868C566.945 36.8868 563.65 37.921 561.046 39.9894C558.441 41.9812 556.717 44.8157 555.875 48.4929Z" fill="#062C35"/>
<path d="M44.089 59.6526H67.8231V83.3867C67.8231 85.2566 66.3128 86.7814 64.4284 86.7814H44.089C42.2191 86.7814 40.6943 85.271 40.6943 83.3867V63.0473C40.6943 61.1773 42.2047 59.6526 44.089 59.6526Z" fill="#062C35"/>
<path d="M50.8651 46.0879H27.131V22.3538C27.131 20.4838 28.6413 18.9591 30.5257 18.9591H50.8651C52.735 18.9591 54.2598 20.4695 54.2598 22.3538V42.6932C54.2598 44.5632 52.7494 46.0879 50.8651 46.0879Z" fill="#062C35"/>
<path d="M94.9511 8.78947V56.2577C94.9511 58.1276 93.4407 59.6524 91.5564 59.6524H67.8223V8.78947C67.8223 6.91951 69.3326 5.39478 71.217 5.39478H91.5564C93.4263 5.39478 94.9511 6.90513 94.9511 8.78947Z" fill="#062C35"/>
<path d="M0.000114441 96.951V49.4828C0.000114441 47.6129 1.51047 46.0881 3.39481 46.0881H27.1289V96.951C27.1289 98.821 25.6186 100.346 23.7342 100.346H3.39481C1.52485 100.346 0.000114441 98.8354 0.000114441 96.951Z" fill="#062C35"/>
</svg>
